# xmcd CD database file
#
# Track frame offsets:
#	187
#	16307
#	34372
#	53505
#	72562
#	90695
#	105292
#	118647
#	134865
#	143685
#	164912
#	176492
#	193672
#	210977
#	231550
#
# Disc length: 3287 seconds
#
# Revision: 0
# Processed by: cddbd v1.5.2PL0 Copyright (c) Steve Scherf et al.
# Submitted via: CDex 1.70beta2
#
DISCID=dc0cd50f
DTITLE=John Pizzarelli - After Hours
DYEAR=1995
DGENRE=Jazz
TTITLE0=Coquette
TTITLE1=I Guess I'll Hang My Tears Out To Dry
TTITLE2=I'll Never Be The Same
TTITLE3=They Can't Take That Away From Me
TTITLE4=You're Lookin' At Me
TTITLE5=I Get Along Without You Very Well
TTITLE6=Mam'selle
TTITLE7=But Not For Me
TTITLE8=Lullaby
TTITLE9=The End Of A Love Affair
TTITLE10=In The Wee Small Hours
TTITLE11=Sometimes I'm Happy
TTITLE12=It Might as Well Be Spring
TTITLE13=Be My Baby Tonight
TTITLE14=Stringbean
EXTD=YEAR: 1995
EXTT0=
EXTT1=
EXTT2=
EXTT3=
EXTT4=
EXTT5=
EXTT6=
EXTT7=
EXTT8=
EXTT9=
EXTT10=
EXTT11=
EXTT12=
EXTT13=
EXTT14=
PLAYORDER=
